{"title":"Ant-Man.2015.CAM.XviD.AC3-The Muffin Stuffers","uid":12143013,"size":1130308809,"categoryP":"video","categoryS":"movies","magnet":"?xt=urn:btih:739ff93eab6c663243151116ed9b2d6fdd87bca4&amp;dn=Ant-Man.2015.CAM.XviD.AC3-The+Muffin+Stuffers&amp;tr=udp%3A%2F%2Ftracker.openbittorrent.com%3A80&amp;tr=udp%3A%2F%2Fopen.demonii.com%3A1337&amp;tr=udp%3A%2F%2Ftracker.coppersurfer.tk%3A6969&amp;tr=udp%3A%2F%2Fexodus.desync.com%3A6969","seeders":9,"leechers":0,"uploader":"makintos13","files":3,"time":1437350466,"description":"screens:\n &lt;a href=&quot;\nhttp://imgmak.com/Dc&quot; rel=&quot;nofollow&quot; target=&quot;_NEW&quot;&gt;\nhttp://imgmak.com/Dc&lt;/a&gt;\n &lt;a href=&quot;\nhttp://imgmak.com/Dn&quot; rel=&quot;nofollow&quot; target=&quot;_NEW&quot;&gt;\nhttp://imgmak.com/Dn&lt;/a&gt;\n &lt;a href=&quot;\nhttp://imgmak.com/Dr&quot; rel=&quot;nofollow&quot; target=&quot;_NEW&quot;&gt;\nhttp://imgmak.com/Dr&lt;/a&gt;\n &lt;a href=&quot;\nhttp://imgmak.com/DB&quot; rel=&quot;nofollow&quot; target=&quot;_NEW&quot;&gt;\nhttp://imgmak.com/DB&lt;/a&gt;\n &lt;a href=&quot;\nhttp://imgmak.com/DI&quot; rel=&quot;nofollow&quot; target=&quot;_NEW&quot;&gt;\nhttp://imgmak.com/DI&lt;/a&gt;\n\n::::::::::::::::::::::::\n\n\nAnt-Man.2015.CAM.XviD.AC3-The Muffin Stuffers\n\nSource Used was HQCAM-MRG\n &lt;a href=&quot;\nhttp://www.imdb.com/title/tt0478970/&quot; rel=&quot;nofollow&quot; target=&quot;_NEW&quot;&gt;\nhttp://www.imdb.com/title/tt0478970/&lt;/a&gt;\n\nTHERE IS A BIT OF MOVEMENT AND THE AR WAS WRONG ON THE SOURCE I USED SO DID A RESIZE TO WHAT LOOKS OK. IT SEEMS FULL RUNTIME ALSO. NOT MUCH CAN BE DONE WITH THIS SOURCE.BUT THIS ONE IS A TAD BETTER, ITS NOT TOO DARK, ENJOY\n\nGeneral\nComplete name: Ant-Man.2015.CAM.XviD.AC3-The Muffin Stuffers.avi\nFormat: AVI\nFormat/Info: Audio Video Interleave\nFile size: 1.01 GiB\nDuration: 1h 42mn\nOverall bit rate: 1 414 Kbps\n\nVideo\nID: 0\nFormat: MPEG-4 Visual\nFormat profile: Advanced Simple@L5\nFormat settings, BVOP: 2\nFormat settings, QPel: No\nFormat settings, GMC: No warppoints\nFormat settings, Matrix: Default (H.263)\nMuxing mode: Packed bitstream\nCodec ID: XVID\nCodec ID/Hint: XviD\nDuration: 1h 42mn\nBit rate: 1 149 Kbps\nWidth: 684 pixels\nHeight: 278 pixels\nDisplay aspect ratio: 2.460\nFrame rate: 29.970 fps\nColor space: YUV\nChroma subsampling: 4:2:0\nBit depth: 8 bits\nScan type: Progressive\nCompression mode: Lossy\nBits/(Pixel*Frame): 0.202\nStream size: 840 MiB (81%)\nWriting library: XviD 64\n\nAudio\nID: 1\nFormat: AC-3\nFormat/Info: Audio Coding 3\nMode extension: CM (complete main)\nFormat settings, Endianness: Big\nCodec ID: 2000\nDuration: 1h 42mn\nBit rate mode: Constant\nBit rate: 256 Kbps\nChannel(s): 2 channels\nChannel positions: Front: L R\nSampling rate: 48.0 KHz\nCompression mode: Lossy\nStream size: 187 MiB (18%)\nAlignment: Aligned on interleaves\nInterleave, duration: 64 ms (1.92 video frames)\nInterleave, preload duration: 192 ms","torrent":{"xt":"urn:btih:739ff93eab6c663243151116ed9b2d6fdd87bca4","amp;dn":"Ant-Man.2015.CAM.XviD.AC3-The+Muffin+Stuffers","amp;tr":["udp%3A%2F%2Ftracker.openbittorrent.com%3A80","udp%3A%2F%2Fopen.demonii.com%3A1337","udp%3A%2F%2Ftracker.coppersurfer.tk%3A6969","udp%3A%2F%2Fexodus.desync.com%3A6969"],"infoHash":"739ff93eab6c663243151116ed9b2d6fdd87bca4","infoHashBuffer":{"type":"Buffer","data":[115,159,249,62,171,108,102,50,67,21,17,22,237,155,45,111,221,135,188,164]},"announce":[],"urlList":[]}}